<svg width="711" height="207" viewBox="0 0 711 207" fill="white"
  xmlns="http://www.w3.org/2000/svg">
  <g clip-path="url(#clip0)">
    <path d="M56.9201 73.1485C56.9201 94.1306 69.5581 109.646 87.5253 114.29H87.0381C93.555 115.082 98.0925 123.837 98.0925 123.837H99.0822C99.0822 123.837 104.016 115.082 110.533 114.29H110.121C128.043 109.662 140.59 94.1458 140.59 73.1485C140.59 47.9486 122.638 30.4077 98.8386 30.4077C75.0244 30.4229 56.9201 47.9638 56.9201 73.1485ZM27 73.1485C27 33.2094 57.6205 3 98.8234 3C140.026 3 170.51 33.2094 170.51 73.1485C170.51 109.494 145.249 137.694 109.665 142.505C103.604 143.678 98.7929 148.976 100.453 151.732C104.716 157.64 115.801 173.948 115.801 184.363C115.801 193.803 109.391 202.985 98.7016 202.985C88.0126 202.985 81.6022 193.788 81.6022 184.363C81.6022 173.811 92.9764 157.199 97.1028 151.489C98.4275 148.672 93.7682 143.601 87.8298 142.475C52.3217 137.633 27 109.448 27 73.1485Z" />
  </g>
  <g clip-path="url(#clip1)">
    <path d="M338.745 200.559V116.237H321.94V200.559H338.745Z" fill="white"/>
    <path fill-rule="evenodd" clip-rule="evenodd" d="M459.281 40.6537H434.926C437.559 27.5564 446.721 19.4963 459.281 19.3083V3.92252C434.907 4.2635 417.284 22.9116 417.273 48.5433H417.272V90.7225H434.776V58.2078C434.817 57.6624 434.807 57.0985 434.776 56.5007V54.9979H459.281V40.6537Z" />
    <path fill-rule="evenodd" clip-rule="evenodd" d="M512.763 40.6537H488.41C491.042 27.5564 500.205 19.4963 512.763 19.3083V3.92252C488.389 4.2635 470.766 22.9116 470.755 48.5433H470.754V90.7225H488.258V58.2078C488.3 57.6624 488.29 57.0985 488.258 56.5007V54.9979H512.763V40.6537Z" />
    <path fill-rule="evenodd" clip-rule="evenodd" d="M401.383 113.499C377.002 113.848 359.374 124.29 359.374 149.939C359.374 176.2 379.062 178.803 376.771 164.589C376.771 164.589 377.03 163.312 377.03 150.24C377.03 137.169 388.824 129.072 401.383 128.888V113.499Z" />
    <path fill-rule="evenodd" clip-rule="evenodd" d="M359.375 200.302H376.88V149.943H359.375V200.302Z" />
    <path fill-rule="evenodd" clip-rule="evenodd" d="M542.059 202.807C517.677 202.458 500.05 192.017 500.05 166.367C500.05 140.106 519.739 137.503 517.446 151.717C517.446 151.717 517.706 152.994 517.706 166.066C517.706 179.137 529.5 187.234 542.059 187.418V202.807Z" />
    <path fill-rule="evenodd" clip-rule="evenodd" d="M500.05 166.37H517.554V116.012H500.05V166.37Z" />
    <path fill-rule="evenodd" clip-rule="evenodd" d="M282.668 3.99472C257.084 3.99472 238.515 22.6406 238.515 48.3262C238.515 74.0588 257.084 92.737 282.668 92.737C295.393 92.737 306.648 87.9439 314.357 79.2487L315.502 77.9577L304.992 66.4375L303.575 67.8127C297.577 73.6328 290.027 76.8368 282.321 76.8368C266.748 76.8368 255.448 64.8484 255.448 48.3262C255.448 31.8541 266.748 19.8998 282.321 19.8998C290.26 19.8998 297.123 22.822 303.317 28.8396L304.707 30.1857L315.516 18.8113L314.366 17.4976C306.74 8.79103 295.482 3.99472 282.668 3.99472Z" />
    <path fill-rule="evenodd" clip-rule="evenodd" d="M363.319 92.7369C388.935 92.7369 408.253 73.6423 408.253 48.326C408.253 23.0567 388.935 3.99457 363.319 3.99457C337.755 3.99457 318.474 23.0567 318.474 48.326C318.474 73.6423 337.755 92.7369 363.319 92.7369ZM363.319 19.8997C379.233 19.8997 391.23 32.1213 391.23 48.326C391.23 64.8483 379.491 76.8366 363.319 76.8366C347.146 76.8366 335.412 64.8483 335.412 48.326C335.412 31.8556 347.146 19.8997 363.319 19.8997Z" />
    <path fill-rule="evenodd" clip-rule="evenodd" d="M569.594 93.7102C584.227 93.7102 595.548 89.3953 605.226 80.1281L606.507 78.8995L597.064 66.8573L595.506 68.2812C588.357 74.8049 579.672 78.2505 570.387 78.2505C555.715 78.2505 545.431 69.3806 543.104 54.9425H609.489L609.694 53.2139C609.88 51.6409 609.971 49.8014 609.971 48.0463V48.0331C609.785 21.5179 592.854 3 568.801 3C543.673 3 525.432 22.0974 525.432 48.4006C525.432 75.0764 543.592 93.7102 569.594 93.7102ZM568.537 18.6419C580.977 18.6419 590.143 27.0912 592.375 40.362H543.367C546.072 26.9007 555.553 18.6419 568.537 18.6419Z" />
    <path fill-rule="evenodd" clip-rule="evenodd" d="M662.929 3.00017C637.796 3.00017 619.555 22.0976 619.555 48.4008C619.555 75.0766 637.72 93.7104 663.722 93.7104C678.351 93.7104 689.673 89.3955 699.351 80.1283L700.63 78.8997L691.188 66.8574L689.63 68.2814C682.485 74.805 673.802 78.2506 664.515 78.2506C649.844 78.2506 639.555 69.3808 637.228 54.9427H703.612L703.818 53.2124C704.005 51.6411 704.101 49.8016 704.101 48.0465V48.0332C703.919 21.9386 686.605 3.00017 662.929 3.00017ZM662.666 18.642C675.105 18.642 684.272 27.0913 686.504 40.3621H637.49C640.201 26.8992 649.681 18.642 662.666 18.642Z" />
    <path fill-rule="evenodd" clip-rule="evenodd" d="M279.061 132.094C286.492 132.094 292.916 134.829 298.713 140.462L300.014 141.722L310.131 131.076L309.055 129.844C301.917 121.697 291.38 117.208 279.386 117.208C255.44 117.208 238.058 134.658 238.058 158.701C238.058 182.785 255.44 200.268 279.386 200.268C291.297 200.268 301.83 195.782 309.046 187.643L310.118 186.435L300.281 175.648L298.954 176.935C293.34 182.387 286.278 185.384 279.061 185.384C264.486 185.384 253.909 174.165 253.909 158.701C253.909 143.283 264.486 132.094 279.061 132.094Z" />
    <path fill-rule="evenodd" clip-rule="evenodd" d="M449.495 132.094C456.925 132.094 463.349 134.829 469.147 140.462L470.448 141.722L480.565 131.076L479.488 129.844C472.35 121.697 461.813 117.208 449.819 117.208C425.874 117.208 408.492 134.658 408.492 158.701C408.492 182.785 425.874 200.268 449.819 200.268C461.73 200.268 472.264 195.782 479.479 187.643L480.551 186.435L470.714 175.648L469.388 176.935C463.774 182.387 456.712 185.384 449.495 185.384C434.919 185.384 424.343 174.165 424.343 158.701C424.343 143.283 434.919 132.094 449.495 132.094Z" />
    <path fill-rule="evenodd" clip-rule="evenodd" d="M592.056 113.929C567.68 113.929 549.988 132.451 549.988 157.962C549.988 183.835 567.606 201.907 592.825 201.907C607.013 201.907 617.994 197.722 627.38 188.734L628.621 187.543L619.463 175.863L617.952 177.244C611.023 183.571 602.6 186.913 593.596 186.913C579.364 186.913 569.385 178.31 567.129 164.307H631.514L631.713 162.629C631.894 161.105 631.987 159.321 631.987 157.619V157.606C631.811 132.299 615.018 113.929 592.056 113.929ZM591.8 129.1C603.865 129.1 612.757 137.295 614.92 150.166H567.383C570.012 137.108 579.207 129.1 591.8 129.1Z" />
  </g>
  <defs>
    <clipPath id="clip0">
      <rect width="143.51" height="200" fill="white" transform="translate(27 3)"/>
    </clipPath>
    <clipPath id="clip1">
      <rect width="466.667" height="200" fill="white" transform="translate(238 3)"/>
    </clipPath>
  </defs>
</svg>
